<svg width="20" height="20" viewBox="0 0 20 20" xmlns="http://www.w3.org/2000/svg">
  <path d="M14.5 7.52115C14.5 8.34958 13.8284 9.02115 13 9.02115C12.1716 9.02115 11.5 8.34958 11.5 7.52115C11.5 6.69272 12.1716 6.02115 13 6.02115C13.8284 6.02115 14.5 6.69272 14.5 7.52115Z"/>
  <path d="M16.75 3H3.25C2.00977 3 1 4.00977 1 5.25V14.75C1 15.9902 2.00977 17 3.25 17H16.75C17.9902 17 19 15.9902 19 14.75V5.25C19 4.00977 17.9902 3 16.75 3ZM3.25 4.5H16.75C17.1631 4.5 17.5 4.83691 17.5 5.25V13.4609L15.5908 11.5518C14.7139 10.6748 13.2861 10.6748 12.4092 11.5518L11.1777 12.7832C11.0781 12.8809 10.9209 12.8799 10.8232 12.7842L7.59082 9.55177C6.74121 8.70216 5.25879 8.70216 4.40918 9.55177L2.5 11.4609V5.25001C2.5 4.83692 2.83691 4.5 3.25 4.5ZM3.25 15.5C2.83691 15.5 2.5 15.1631 2.5 14.75V13.582L5.46973 10.6123C5.7627 10.3193 6.23731 10.3193 6.53028 10.6123L9.76368 13.8457C10.4453 14.5254 11.5557 14.5264 12.2373 13.8447L13.4697 12.6123C13.7627 12.3193 14.2373 12.3193 14.5303 12.6123L17.231 15.313C17.0999 15.425 16.9353 15.5 16.75 15.5L3.25 15.5Z"/>
</svg>
